<svg id="visual" viewBox="0 0 3860 2160" width="3860" height="2160" xmlns="http://www.w3.org/2000/svg" xmlns:xlink="http://www.w3.org/1999/xlink" version="1.1"><rect x="0" y="0" width="3860" height="2160" fill="#00071b"></rect><defs><linearGradient id="grad1_0" x1="44%" y1="100%" x2="100%" y2="0%"><stop offset="14.259259259259261%" stop-color="#002f54" stop-opacity="1"></stop><stop offset="85.74074074074073%" stop-color="#002f54" stop-opacity="1"></stop></linearGradient></defs><defs><linearGradient id="grad1_1" x1="44%" y1="100%" x2="100%" y2="0%"><stop offset="14.259259259259261%" stop-color="#002f54" stop-opacity="1"></stop><stop offset="85.74074074074073%" stop-color="#00071b" stop-opacity="1"></stop></linearGradient></defs><defs><linearGradient id="grad2_0" x1="0%" y1="100%" x2="56%" y2="0%"><stop offset="14.259259259259261%" stop-color="#002f54" stop-opacity="1"></stop><stop offset="85.74074074074073%" stop-color="#002f54" stop-opacity="1"></stop></linearGradient></defs><defs><linearGradient id="grad2_1" x1="0%" y1="100%" x2="56%" y2="0%"><stop offset="14.259259259259261%" stop-color="#00071b" stop-opacity="1"></stop><stop offset="85.74074074074073%" stop-color="#002f54" stop-opacity="1"></stop></linearGradient></defs><g transform="translate(3860, 2160)"><path d="M-859 0C-929.7 -143.4 -1000.4 -286.7 -985.8 -408.3C-971.1 -529.9 -871.1 -629.8 -794.8 -794.8C-718.5 -959.8 -665.8 -1190.1 -537.3 -1297.1C-408.8 -1404.2 -204.4 -1388.1 0 -1372L0 0Z" fill="#071d36"></path><path d="M-429.5 0C-464.9 -71.7 -500.2 -143.4 -492.9 -204.2C-485.6 -265 -435.6 -314.9 -397.4 -397.4C-359.2 -479.9 -332.9 -595 -268.6 -648.6C-204.4 -702.1 -102.2 -694 0 -686L0 0Z" fill="#002f54"></path></g><g transform="translate(0, 0)"><path d="M965 0C1027.5 164.7 1089.9 329.4 1033.8 428.2C977.7 527 803.1 559.9 719.1 719.1C635.2 878.4 642 1163.9 537.3 1297.1C432.6 1430.3 216.3 1411.2 0 1392L0 0Z" fill="#071d36"></path><path d="M482.5 0C513.7 82.4 545 164.7 516.9 214.1C488.9 263.5 401.5 280 359.6 359.6C317.6 439.2 321 582 268.6 648.6C216.3 715.2 108.1 705.6 0 696L0 0Z" fill="#002f54"></path></g></svg>