<svg id="visual" viewBox="0 0 1920 1080" width="1920" height="1080" xmlns="http://www.w3.org/2000/svg" xmlns:xlink="http://www.w3.org/1999/xlink" version="1.1"><rect x="0" y="0" width="1920" height="1080" fill="#513509"></rect><defs><linearGradient id="grad1_0" x1="43.8%" y1="0%" x2="100%" y2="100%"><stop offset="14.444444444444446%" stop-color="#9a6e2c" stop-opacity="1"></stop><stop offset="85.55555555555554%" stop-color="#9a6e2c" stop-opacity="1"></stop></linearGradient></defs><defs><linearGradient id="grad1_1" x1="43.8%" y1="0%" x2="100%" y2="100%"><stop offset="14.444444444444446%" stop-color="#9a6e2c" stop-opacity="1"></stop><stop offset="85.55555555555554%" stop-color="#513509" stop-opacity="1"></stop></linearGradient></defs><defs><linearGradient id="grad2_0" x1="0%" y1="0%" x2="56.3%" y2="100%"><stop offset="14.444444444444446%" stop-color="#9a6e2c" stop-opacity="1"></stop><stop offset="85.55555555555554%" stop-color="#9a6e2c" stop-opacity="1"></stop></linearGradient></defs><defs><linearGradient id="grad2_1" x1="0%" y1="0%" x2="56.3%" y2="100%"><stop offset="14.444444444444446%" stop-color="#513509" stop-opacity="1"></stop><stop offset="85.55555555555554%" stop-color="#9a6e2c" stop-opacity="1"></stop></linearGradient></defs><g transform="translate(1920, 0)"><path d="M0 702C-136.5 691.6 -273 681.1 -351 607.9C-429 534.8 -448.4 398.8 -497.1 287C-545.8 175.2 -623.9 87.6 -702 0L0 0Z" fill="#75511a"></path><path d="M0 351C-68.3 345.8 -136.5 340.6 -175.5 304C-214.5 267.4 -224.2 199.4 -248.5 143.5C-272.9 87.6 -312 43.8 -351 0L0 0Z" fill="#9a6e2c"></path></g><g transform="translate(0, 1080)"><path d="M0 -702C140.1 -693.6 280.2 -685.3 351 -607.9C421.8 -530.6 423.3 -384.3 470.3 -271.5C517.2 -158.7 609.6 -79.3 702 0L0 0Z" fill="#75511a"></path><path d="M0 -351C70 -346.8 140.1 -342.6 175.5 -304C210.9 -265.3 211.7 -192.2 235.1 -135.8C258.6 -79.3 304.8 -39.7 351 0L0 0Z" fill="#9a6e2c"></path></g></svg>