<svg id="visual" viewBox="0 0 3840 2160" width="3840" height="2160" xmlns="http://www.w3.org/2000/svg" xmlns:xlink="http://www.w3.org/1999/xlink" version="1.1"><rect width="3840" height="2160" fill="#001829"></rect><g><g transform="translate(374 1438)"><path d="M0 -223.8L212.8 -69.1L131.5 181L-131.5 181L-212.8 -69.1Z" fill="#297EA6"></path></g><g transform="translate(3071 1082)"><path d="M0 -97L92.3 -30L57 78.5L-57 78.5L-92.3 -30Z" fill="#297EA6"></path></g><g transform="translate(2176 1390)"><path d="M0 -147L139.8 -45.4L86.4 118.9L-86.4 118.9L-139.8 -45.4Z" fill="#297EA6"></path></g><g transform="translate(1672 715)"><path d="M0 -113L107.5 -34.9L66.4 91.4L-66.4 91.4L-107.5 -34.9Z" fill="#297EA6"></path></g><g transform="translate(364 689)"><path d="M0 -140L133.1 -43.3L82.3 113.3L-82.3 113.3L-133.1 -43.3Z" fill="#297EA6"></path></g><g transform="translate(1233 2135)"><path d="M0 -174L165.5 -53.8L102.3 140.8L-102.3 140.8L-165.5 -53.8Z" fill="#297EA6"></path></g><g transform="translate(941 812)"><path d="M0 -209L198.8 -64.6L122.8 169.1L-122.8 169.1L-198.8 -64.6Z" fill="#297EA6"></path></g><g transform="translate(800 228)"><path d="M0 -161L153.1 -49.8L94.6 130.3L-94.6 130.3L-153.1 -49.8Z" fill="#297EA6"></path></g><g transform="translate(2477 647)"><path d="M0 -181L172.1 -55.9L106.4 146.4L-106.4 146.4L-172.1 -55.9Z" fill="#297EA6"></path></g><g transform="translate(3546 305)"><path d="M0 -131L124.6 -40.5L77 106L-77 106L-124.6 -40.5Z" fill="#297EA6"></path></g><g transform="translate(3683 2015)"><path d="M0 -156L148.4 -48.2L91.7 126.2L-91.7 126.2L-148.4 -48.2Z" fill="#297EA6"></path></g><g transform="translate(963 1371)"><path d="M0 -172L163.6 -53.2L101.1 139.2L-101.1 139.2L-163.6 -53.2Z" fill="#297EA6"></path></g><g transform="translate(1701 185)"><path d="M0 -193L183.6 -59.6L113.4 156.1L-113.4 156.1L-183.6 -59.6Z" fill="#297EA6"></path></g><g transform="translate(758 1826)"><path d="M0 -202L192.1 -62.4L118.7 163.4L-118.7 163.4L-192.1 -62.4Z" fill="#297EA6"></path></g><g transform="translate(2410 1999)"><path d="M0 -177L168.3 -54.7L104 143.2L-104 143.2L-168.3 -54.7Z" fill="#297EA6"></path></g><g transform="translate(3347 1487)"><path d="M0 -157L149.3 -48.5L92.3 127L-92.3 127L-149.3 -48.5Z" fill="#297EA6"></path></g><g transform="translate(2759 173)"><path d="M0 -197L187.4 -60.9L115.8 159.4L-115.8 159.4L-187.4 -60.9Z" fill="#297EA6"></path></g><g transform="translate(2908 1601)"><path d="M0 -107L101.8 -33.1L62.9 86.6L-62.9 86.6L-101.8 -33.1Z" fill="#297EA6"></path></g><g transform="translate(3612 802)"><path d="M0 -95L90.4 -29.4L55.8 76.9L-55.8 76.9L-90.4 -29.4Z" fill="#297EA6"></path></g><g transform="translate(1697 2131)"><path d="M0 -116L110.3 -35.8L68.2 93.8L-68.2 93.8L-110.3 -35.8Z" fill="#297EA6"></path></g><g transform="translate(1718 1431)"><path d="M0 -105L99.9 -32.4L61.7 84.9L-61.7 84.9L-99.9 -32.4Z" fill="#297EA6"></path></g><g transform="translate(3810 1583)"><path d="M0 -122L116 -37.7L71.7 98.7L-71.7 98.7L-116 -37.7Z" fill="#297EA6"></path></g><g transform="translate(136 2095)"><path d="M0 -133L126.5 -41.1L78.2 107.6L-78.2 107.6L-126.5 -41.1Z" fill="#297EA6"></path></g><g transform="translate(2281 73)"><path d="M0 -90L85.6 -27.8L52.9 72.8L-52.9 72.8L-85.6 -27.8Z" fill="#297EA6"></path></g><g transform="translate(268 102)"><path d="M0 -126L119.8 -38.9L74.1 101.9L-74.1 101.9L-119.8 -38.9Z" fill="#297EA6"></path></g><g transform="translate(3215 2099)"><path d="M0 -136L129.3 -42L79.9 110L-79.9 110L-129.3 -42Z" fill="#297EA6"></path></g><g transform="translate(3077 520)"><path d="M0 -171L162.6 -52.8L100.5 138.3L-100.5 138.3L-162.6 -52.8Z" fill="#297EA6"></path></g><g transform="translate(2603 1224)"><path d="M0 -185L175.9 -57.2L108.7 149.7L-108.7 149.7L-175.9 -57.2Z" fill="#297EA6"></path></g><g transform="translate(1255 448)"><path d="M0 -220L209.2 -68L129.3 178L-129.3 178L-209.2 -68Z" fill="#297EA6"></path></g><g transform="translate(1352 1076)"><path d="M0 -138L131.2 -42.6L81.1 111.6L-81.1 111.6L-131.2 -42.6Z" fill="#297EA6"></path></g><g transform="translate(93 1061)"><path d="M0 -220L209.2 -68L129.3 178L-129.3 178L-209.2 -68Z" fill="#297EA6"></path></g></g></svg>